<svg
    width="24"
    height="24"
    viewBox="0 0 24 24"
    xmlns="http://www.w3.org/2000/svg">

    <!-- Borde blanco (círculo grande) -->
    <path
        fill="#FFFFFF"
        d="M12,2a10,10 0 1,0 0,20a10,10 0 1,0 0,-20"/>

    <!-- Círculo rosa (más pequeño, para crear el efecto de borde) -->
    <path
        fill="#E91E63"
        d="M12,4a8,8 0 1,0 0,16a8,8 0 1,0 0,-16"/>

    <!-- Icono central tintable -->
    <g transform="scale(0.6) translate(8,8)">
        <path
            fill="#FFFFFF"
            d="M17,12h-5v5h5v-5zM16,1v2L8,3L8,1L6,1v2L5,3c-1.11,0 -1.99,0.9 -1.99,2L3,19c0,1.1 0.89,2 2,2h14c1.1,0 2,-0.9 2,-2L21,5c0,-1.1 -0.9,-2 -2,-2h-1L18,1h-2zM19,19L5,19L5,8h14v11z"/>
    </g>
</svg>
