<svg
    width="24"
    height="24"
    viewBox="0 0 24 24"
    xmlns="http://www.w3.org/2000/svg">

    <!-- Borde blanco (círculo grande) -->
    <path
        fill="#FFFFFF"
        d="M12,2a10,10 0 1,0 0,20a10,10 0 1,0 0,-20"/>

    <!-- Círculo amarillo/naranja (más pequeño, para crear el efecto de borde) -->
    <path
        fill="#FF9800"
        d="M12,4a8,8 0 1,0 0,16a8,8 0 1,0 0,-16"/>

    <!-- Icono blanco, más pequeño y centrado -->
    <g transform="scale(0.6) translate(8,7)">
        <path
            fill="#FFFFFF"
            d="M12,3L4,9v12h16V9L12,3zM12.5,12.5c0,0.83 -0.67,1.5 -1.5,1.5v4h-1v-4c-0.83,0 -1.5,-0.67 -1.5,-1.5v-3h1v3H10v-3h1v3h0.5v-3h1V12.5zM15,18h-1v-3.5h-1v-3c0,-1.1 0.9,-2 2,-2V18z"/>
    </g>
</svg>
