<svg
    width="24"
    height="24"
    viewBox="0 0 24 24"
    xmlns="http://www.w3.org/2000/svg">

    <!-- Borde blanco (círculo grande) -->
    <path
        fill="#FFFFFF"
        d="M12,2a10,10 0 1,0 0,20a10,10 0 1,0 0,-20"/>

    <!-- Círculo azul (más pequeño, para crear el efecto de borde) -->
    <path
        fill="#2196F3"
        d="M12,4a8,8 0 1,0 0,16a8,8 0 1,0 0,-16"/>

    <!-- Libro abierto (más realista) -->
    <g transform="scale(0.8) translate(3,3)">
        <!-- Tapa izquierda -->
        <path
            fill="#BDBDBD"
            d="M6,7c0,0 0,8 0,10c0,0.5 0.5,1 1,1h5V7H6z"/>
        <!-- Tapa derecha -->
        <path
            fill="#BDBDBD"
            d="M18,7c0,0 0,8 0,10c0,0.5 -0.5,1 -1,1h-5V7h6z"/>
        <!-- Hojas (blanco) -->
        <rect x="7" y="8" width="4" height="9" fill="#FFFFFF"/>
        <rect x="13" y="8" width="4" height="9" fill="#FFFFFF"/>
        <!-- Línea de separación central -->
        <line x1="12" y1="8" x2="12" y2="17" stroke="#2196F3" stroke-width="0.5" fill="none"/>
        <!-- Líneas de texto (izquierda) -->
        <line x1="8" y1="10" x2="10" y2="10" stroke="#90CAF9" stroke-width="0.3" fill="none"/>
        <line x1="8" y1="12" x2="10" y2="12" stroke="#90CAF9" stroke-width="0.3" fill="none"/>
        <line x1="8" y1="14" x2="10" y2="14" stroke="#90CAF9" stroke-width="0.3" fill="none"/>
        <!-- Líneas de texto (derecha) -->
        <line x1="14" y1="10" x2="16" y2="10" stroke="#90CAF9" stroke-width="0.3" fill="none"/>
        <line x1="14" y1="12" x2="16" y2="12" stroke="#90CAF9" stroke-width="0.3" fill="none"/>
        <line x1="14" y1="14" x2="16" y2="14" stroke="#90CAF9" stroke-width="0.3" fill="none"/>
        <!-- Marcador de diario (rojo) -->
        <polygon points="12,8.5 12,11.5 12.6,11 13.2,11.5 13.2,8.5" fill="#E53935"/>
    </g>
</svg>
